<svg xmlns="http://www.w3.org/2000/svg" width="52.999" height="53.004" viewBox="0 0 52.999 53.004">
  <path id="Path_29" data-name="Path 29" d="M692.5,343.194v25.947h12.356V333.8H692.5Zm52.708,1.462c-.814-6.7-3.868-10.859-12.91-10.859-5.3,0-8.876,1.951-10.372,4.78h-.163V333.8h-9.854v35.344h10.308V351.616c0-4.619.911-9.072,6.571-9.072,5.688,0,6.11,5.267,6.11,9.4v17.2h10.6V349.729a41.4,41.4,0,0,0-.292-5.073Zm-46.53-28.516a6.178,6.178,0,1,0,6.177,6.178,6.178,6.178,0,0,0-6.177-6.178Z" transform="translate(-692.499 -316.14)" fill="#ff7800" fill-rule="evenodd"/>
</svg>
