<svg xmlns="http://www.w3.org/2000/svg" width="48.046" height="60.005" viewBox="0 0 48.046 60.005">
  <path id="Path_31" data-name="Path 31" d="M425.216,317.693c-16.871,0-25.437,11.692-25.437,21.5a19,19,0,0,0,.651,5.178c1.01,3.681,3.192,6.644,6.645,8.013a1.191,1.191,0,0,0,1.758-.847c.2-.619.552-2.118.75-2.769a1.6,1.6,0,0,0-.489-1.922,9.31,9.31,0,0,1-1.953-3.583,11.806,11.806,0,0,1-.424-3.192c0-8.7,6.741-16.514,17.556-16.514,9.542,0,14.819,5.635,14.819,13.191a30.893,30.893,0,0,1-.652,6.384c-1.5,6.938-5.4,11.954-10.649,11.954-3.713,0-6.548-2.964-5.635-6.645.521-2.05,1.27-4.2,1.922-6.285a22.1,22.1,0,0,0,1.27-5.927c0-2.866-1.563-5.178-4.851-5.178-3.812,0-6.873,3.843-6.873,8.922a14.083,14.083,0,0,0,.227,2.541,12.585,12.585,0,0,0,.912,2.932s-3.908,15.992-4.56,18.793c-1.367,5.6-.2,12.408-.1,13.093.032.391.586.488.847.2.358-.455,4.885-5.83,6.448-11.268.391-1.563,2.509-9.51,2.509-9.51,1.206,2.313,4.819,4.331,8.7,4.331,9.282,0,16.187-6.741,18.434-16.545a31.2,31.2,0,0,0,.782-7.1c0-10.261-8.956-19.738-22.6-19.738Z" transform="translate(-399.777 -317.693)" fill="#ff7800" fill-rule="evenodd"/>
</svg>
