<svg xmlns="http://www.w3.org/2000/svg" width="44.75" height="45.471" viewBox="0 0 44.75 45.471">
  <g id="Group_12" data-name="Group 12" transform="translate(-437.011 -515.971)">
    <path id="Path_21" data-name="Path 21" d="M438.56,531.642l10.791,10.689a3.318,3.318,0,0,0,0,3.494,61.3,61.3,0,0,0,12.641,12.641s2.672,2.261,4.317.822L477,570.08s-6.783,8.736-27.03-10.072C449.968,560.008,431.674,542.844,438.56,531.642Z" transform="translate(0 -10.664)" fill="#fff"/>
    <path id="Path_22" data-name="Path 22" d="M531.246,606.777,534,604.1c.988-.961,2.158-1.361,2.613-.894l9.086,9.348c.454.467.021,1.625-.967,2.586l-2.757,2.68Z" transform="translate(-64.122 -59.224)" fill="#fff"/>
    <path id="Path_23" data-name="Path 23" d="M444.9,519.74l2.757-2.68c.989-.961,2.158-1.361,2.613-.893l9.086,9.348c.454.468.021,1.625-.968,2.586l-2.757,2.68Z" transform="translate(-5.37)" fill="#fff"/>
  </g>
</svg>
