<svg xmlns="http://www.w3.org/2000/svg" xmlns:xlink="http://www.w3.org/1999/xlink" width="168" height="168" viewBox="0 0 168 168">
  <defs>
    <filter id="Ellipse_9" x="0" y="0" width="168" height="168" filterUnits="userSpaceOnUse">
      <feOffset dy="6" input="SourceAlpha"/>
      <feGaussianBlur stdDeviation="3" result="blur"/>
      <feFlood flood-opacity="0.373"/>
      <feComposite operator="in" in2="blur"/>
      <feComposite in="SourceGraphic"/>
    </filter>
  </defs>
  <g id="Group_45" data-name="Group 45" transform="translate(-1318 -5438)">
    <g transform="matrix(1, 0, 0, 1, 1318, 5438)" filter="url(#Ellipse_9)">
      <circle id="Ellipse_9-2" data-name="Ellipse 9" cx="75" cy="75" r="75" transform="translate(9 3)" fill="#374450"/>
    </g>
    <path id="Path_32" data-name="Path 32" d="M623.02,206.394s-.615-4.326-2.406-6.211a8.589,8.589,0,0,0-5.983-2.667c-8.39-.617-20.976-.617-20.976-.617h-.066s-12.551,0-20.944.617a8.551,8.551,0,0,0-6.015,2.667c-1.79,1.886-2.405,6.211-2.405,6.211a95.379,95.379,0,0,0-.62,10.08v4.781a93.811,93.811,0,0,0,.62,10.082s.615,4.326,2.405,6.243c2.276,2.5,5.27,2.407,6.635,2.666,4.78.489,20.39.651,20.39.651s12.585-.065,20.976-.651a8.438,8.438,0,0,0,5.983-2.666c1.791-1.918,2.406-6.243,2.406-6.243a99.413,99.413,0,0,0,.585-10.082v-4.781C623.605,211.466,623.02,206.394,623.02,206.394Zm-19.382,11.838-16.228,8.746v-17.56l7.35,4Z" transform="translate(808.395 5297.102)" fill="#fff" fill-rule="evenodd"/>
  </g>
</svg>
