<svg xmlns="http://www.w3.org/2000/svg" width="352.5" height="35.306" viewBox="0 0 352.5 35.306">
  <g id="Group_65" data-name="Group 65" transform="translate(-241.406 -1725.384)">
    <g id="Group_64" data-name="Group 64" transform="translate(0 213)">
      <path id="Path_30" data-name="Path 30" d="M15.966,0H9.349V-25.7H.875v-5.507H24.44V-25.7H15.966ZM40.31-24.312a10.5,10.5,0,0,1,2.2.192l-.491,6.1a7.458,7.458,0,0,0-1.921-.213,6.9,6.9,0,0,0-4.856,1.6,5.787,5.787,0,0,0-1.74,4.482V0H26.99V-23.864h4.931l.961,4.013h.32a8.971,8.971,0,0,1,3-3.234A7.4,7.4,0,0,1,40.31-24.312ZM61.558,0,60.3-3.244h-.171A9.615,9.615,0,0,1,56.745-.374a10.933,10.933,0,0,1-4.536.8A7.335,7.335,0,0,1,46.8-1.537a7.541,7.541,0,0,1-1.974-5.592,6.3,6.3,0,0,1,2.657-5.6q2.657-1.8,8.015-2l4.141-.128V-15.9q0-3.629-3.714-3.629A16.925,16.925,0,0,0,49.2-17.8l-2.156-4.4a19.4,19.4,0,0,1,9.136-2.156q4.8,0,7.364,2.092T66.1-15.9V0ZM59.637-11.057l-2.519.085a8.066,8.066,0,0,0-4.226,1.025A3.218,3.218,0,0,0,51.5-7.087q0,2.754,3.159,2.754a5,5,0,0,0,3.618-1.3,4.573,4.573,0,0,0,1.355-3.458ZM95.272,0h-6.51V-13.938a6.7,6.7,0,0,0-.918-3.874A3.339,3.339,0,0,0,84.92-19.1a4.4,4.4,0,0,0-3.949,1.825q-1.217,1.825-1.217,6.051V0h-6.51V-23.864h4.973l.875,3.052h.363a6.88,6.88,0,0,1,3-2.615,10.212,10.212,0,0,1,4.344-.886q4.162,0,6.318,2.252t2.156,6.5Zm23.789-7.087a6.57,6.57,0,0,1-2.551,5.592Q113.96.427,108.879.427a23.968,23.968,0,0,1-4.44-.352A16.793,16.793,0,0,1,101-.961V-6.339a22.694,22.694,0,0,0,4.088,1.43,16.551,16.551,0,0,0,4,.576q3.543,0,3.543-2.049a1.71,1.71,0,0,0-.47-1.249,6.809,6.809,0,0,0-1.622-1.089q-1.153-.608-3.074-1.419a19.308,19.308,0,0,1-4.045-2.135,6.008,6.008,0,0,1-1.878-2.252,7.433,7.433,0,0,1-.587-3.127,5.669,5.669,0,0,1,2.465-4.92,12.009,12.009,0,0,1,6.991-1.74,19.842,19.842,0,0,1,8.389,1.878l-1.964,4.7q-1.793-.768-3.351-1.259a10.523,10.523,0,0,0-3.18-.491q-2.882,0-2.882,1.558a1.832,1.832,0,0,0,.929,1.515,25.251,25.251,0,0,0,4.066,1.9,18.89,18.89,0,0,1,4.1,2.113,6.25,6.25,0,0,1,1.921,2.263A6.953,6.953,0,0,1,119.061-7.087ZM145.945,0h-6.51V-13.938a7.021,7.021,0,0,0-.864-3.874,3.041,3.041,0,0,0-2.721-1.291,3.942,3.942,0,0,0-3.629,1.836q-1.131,1.836-1.131,6.041V0h-6.51V-23.864h4.973l.875,3.052h.363a6.615,6.615,0,0,1,2.775-2.572,9.01,9.01,0,0,1,4.162-.929q5.358,0,7.257,3.5h.576a6.447,6.447,0,0,1,2.828-2.583,9.432,9.432,0,0,1,4.216-.918q4.056,0,6.137,2.081t2.081,6.67V0h-6.532V-13.938a7.021,7.021,0,0,0-.864-3.874A3.041,3.041,0,0,0,150.7-19.1a4.06,4.06,0,0,0-3.575,1.708q-1.185,1.708-1.185,5.422Zm31.878-19.68a4.129,4.129,0,0,0-3.244,1.313,6.076,6.076,0,0,0-1.345,3.725h9.136a5.427,5.427,0,0,0-1.259-3.725A4.264,4.264,0,0,0,177.823-19.68ZM178.741.427q-5.763,0-9.008-3.18t-3.244-9.008q0-6,3-9.274a10.679,10.679,0,0,1,8.293-3.276q5.059,0,7.876,2.882t2.818,7.962v3.159h-15.39a6.266,6.266,0,0,0,1.644,4.333,5.783,5.783,0,0,0,4.312,1.558,17.9,17.9,0,0,0,4.077-.448A20.4,20.4,0,0,0,187.13-6.3v5.037a15.286,15.286,0,0,1-3.65,1.27A23.013,23.013,0,0,1,178.741.427Zm23.02,0a7.751,7.751,0,0,1-6.606-3.266q-2.4-3.266-2.4-9.05,0-5.87,2.444-9.146a7.938,7.938,0,0,1,6.734-3.276,7.785,7.785,0,0,1,6.873,3.5h.213a26.616,26.616,0,0,1-.491-4.76v-7.642h6.532V0h-4.995l-1.259-3.1h-.277A7.45,7.45,0,0,1,201.761.427Zm2.284-5.187a4.412,4.412,0,0,0,3.661-1.451q1.163-1.451,1.27-4.931v-.7q0-3.842-1.185-5.507a4.4,4.4,0,0,0-3.853-1.665,3.821,3.821,0,0,0-3.383,1.846,9.851,9.851,0,0,0-1.206,5.368,9.335,9.335,0,0,0,1.217,5.283A3.975,3.975,0,0,0,204.045-4.76Zm17.983-25.273q0-3.18,3.543-3.18t3.543,3.18a3.1,3.1,0,0,1-.886,2.359,3.723,3.723,0,0,1-2.657.843Q222.028-26.831,222.028-30.033ZM228.816,0h-6.51V-23.864h6.51Zm22.423,0-1.259-3.244h-.171a9.615,9.615,0,0,1-3.383,2.871,10.933,10.933,0,0,1-4.536.8,7.335,7.335,0,0,1-5.411-1.964A7.541,7.541,0,0,1,234.5-7.129a6.3,6.3,0,0,1,2.657-5.6q2.657-1.8,8.015-2l4.141-.128V-15.9q0-3.629-3.714-3.629a16.925,16.925,0,0,0-6.724,1.729l-2.156-4.4a19.4,19.4,0,0,1,9.136-2.156q4.8,0,7.364,2.092t2.561,6.361V0Zm-1.921-11.057-2.519.085a8.066,8.066,0,0,0-4.226,1.025,3.218,3.218,0,0,0-1.387,2.86q0,2.754,3.159,2.754a5,5,0,0,0,3.618-1.3,4.573,4.573,0,0,0,1.355-3.458Z" transform="translate(338.122 1545.597)" fill="#fff"/>
      <g id="Group_62" data-name="Group 62" transform="translate(0 445)">
        <line id="Line_27" data-name="Line 27" y1="13.305" transform="translate(256.262 1071.413)" fill="none" stroke="#ff7800" stroke-width="3"/>
        <line id="Line_28" data-name="Line 28" x2="43.107" transform="translate(256.262 1071.413)" fill="none" stroke="#ff7800" stroke-width="3"/>
        <line id="Line_29" data-name="Line 29" y2="13.256" transform="translate(299.369 1071.413)" fill="none" stroke="#ff7800" stroke-width="3"/>
        <line id="Line_30" data-name="Line 30" x2="10.223" transform="translate(291.105 1084.669)" fill="none" stroke="#ff7800" stroke-width="3"/>
        <line id="Line_31" data-name="Line 31" x2="10.223" transform="translate(291.105 1101.19)" fill="none" stroke="#ff7800" stroke-width="3"/>
        <line id="Line_32" data-name="Line 32" y2="16.521" transform="translate(301.328 1084.669)" fill="none" stroke="#ff7800" stroke-width="3"/>
        <line id="Line_33" data-name="Line 33" y2="16.521" transform="translate(291.105 1084.669)" fill="none" stroke="#ff7800" stroke-width="3"/>
        <line id="Line_34" data-name="Line 34" x1="21.486" transform="translate(269.619 1098.024)" fill="none" stroke="#ff7800" stroke-width="3"/>
        <line id="Line_35" data-name="Line 35" y1="13.356" transform="translate(269.619 1084.669)" fill="none" stroke="#ff7800" stroke-width="3"/>
        <line id="Line_36" data-name="Line 36" x1="26.713" transform="translate(242.906 1084.669)" fill="none" stroke="#ff7800" stroke-width="3"/>
        <line id="Line_37" data-name="Line 37" y2="16.521" transform="translate(242.906 1084.669)" fill="none" stroke="#ff7800" stroke-width="3"/>
        <line id="Line_38" data-name="Line 38" x2="26.713" transform="translate(242.906 1101.19)" fill="none" stroke="#ff7800" stroke-width="3"/>
        <line id="Line_39" data-name="Line 39" y1="3.166" transform="translate(269.619 1098.024)" fill="none" stroke="#ff7800" stroke-width="3"/>
      </g>
    </g>
  </g>
</svg>
