<?xml version="1.0" encoding="UTF-8" standalone="no"?>
<!-- Created with Inkscape (http://www.inkscape.org/) -->

<svg
   xmlns:dc="http://purl.org/dc/elements/1.1/"
   xmlns:cc="http://creativecommons.org/ns#"
   xmlns:rdf="http://www.w3.org/1999/02/22-rdf-syntax-ns#"
   xmlns:svg="http://www.w3.org/2000/svg"
   xmlns="http://www.w3.org/2000/svg"
   xmlns:sodipodi="http://sodipodi.sourceforge.net/DTD/sodipodi-0.dtd"
   xmlns:inkscape="http://www.inkscape.org/namespaces/inkscape"
   width="200"
   height="140"
   viewBox="0 0 52.916665 37.041668"
   version="1.1"
   id="svg4923"
   sodipodi:docname="ibarry-symbol.svg"
   inkscape:version="0.92.4 (5da689c313, 2019-01-14)">
  <defs
     id="defs4917">
    <clipPath
       clipPathUnits="userSpaceOnUse"
       id="clipPath30">
      <path
         d="M 320,140 H 1600 V 939.999 H 320 Z"
         id="path28"
         inkscape:connector-curvature="0" />
    </clipPath>
  </defs>
  <sodipodi:namedview
     id="base"
     pagecolor="#ffffff"
     bordercolor="#666666"
     borderopacity="1.0"
     inkscape:pageopacity="0.0"
     inkscape:pageshadow="2"
     inkscape:zoom="1.979899"
     inkscape:cx="48.656373"
     inkscape:cy="30.544578"
     inkscape:document-units="mm"
     inkscape:current-layer="layer1"
     showgrid="false"
     units="px"
     inkscape:window-width="1440"
     inkscape:window-height="837"
     inkscape:window-x="-8"
     inkscape:window-y="-8"
     inkscape:window-maximized="1" />
  <metadata
     id="metadata4920">
    <rdf:RDF>
      <cc:Work
         rdf:about="">
        <dc:format>image/svg+xml</dc:format>
        <dc:type
           rdf:resource="http://purl.org/dc/dcmitype/StillImage" />
        <dc:title />
      </cc:Work>
    </rdf:RDF>
  </metadata>
  <g
     inkscape:label="Layer 1"
     inkscape:groupmode="layer"
     id="layer1"
     transform="translate(0,-259.95832)">
    <g
       transform="matrix(0.24576229,0,0,-0.24576229,-214.93364,482.31348)"
       id="g24">
      <g
         id="g26"
         clip-path="url(#clipPath30)">
        <g
           id="g32"
           transform="translate(1047.9325,800.4531)">
          <path
             d="m 0,0 c -22.448,-9.983 -49.754,1.286 -58.743,23.797 -0.844,2.113 -1.705,4.22 -2.564,6.327 -2.232,5.467 -0.629,10.968 4.187,14.349 0.265,0.187 0.535,0.369 0.806,0.548 5.744,3.791 7.91,3.403 11.798,-2.335 2.667,-3.937 4.263,-8.385 2.288,-12.91 -4.714,-10.797 2.768,-21.097 11.159,-24.85 9.411,-4.209 19.37,-5.274 29.548,-4.989 C -1.013,-0.049 -0.507,-0.021 0,0"
             style="fill:#ff6411;fill-opacity:1;fill-rule:nonzero;stroke:none"
             id="path34"
             inkscape:connector-curvature="0" />
        </g>
        <g
           id="g36"
           transform="translate(1005.0612,856.292)">
          <path
             d="M 0,0 C -8.648,7.213 -4.533,19.786 4.134,27.153 0.595,20.449 0.339,13.361 1.169,6.059 1.372,4.269 0.488,2.356 0,0"
             style="fill:#ff6411;fill-opacity:1;fill-rule:nonzero;stroke:none"
             id="path38"
             inkscape:connector-curvature="0" />
        </g>
        <g
           id="g40"
           transform="translate(1103.218,876.9507)">
          <path
             d="m 0,0 c -10.288,7.72 -21.388,14.03 -33.429,18.598 -9.602,3.643 -19.424,6.219 -29.845,5.12 -13.535,-1.426 -23.869,-10.176 -26.461,-22.34 -2.953,-13.854 2.313,-25.564 14.706,-32.722 2.346,-1.355 4.727,-2.659 7.003,-4.127 4.322,-2.789 7.366,-6.598 9.143,-11.482 3.309,-9.093 9.043,-12.454 18.854,-11.784 8.291,0.565 14.003,6.322 10.125,15.381 -4.177,9.757 -5.671,19.942 -4.528,30.532 0.546,5.046 -0.88,9.712 -3.776,13.832 -2.864,4.074 -5.909,8.021 -8.938,11.975 -1.377,1.798 -1.746,3.599 0.018,5.201 1.783,1.621 3.687,1.145 5.134,-0.566 2.377,-2.81 4.633,-5.725 6.894,-8.631 5.914,-7.599 8.716,-16.041 7.531,-25.795 -0.878,-7.228 0.294,-14.277 2.97,-20.075 1.195,-3.573 1.896,-6.332 3.026,-8.903 2.202,-5.011 6.008,-8.167 11.572,-8.811 5.2,-0.602 7.688,3.104 9.674,6.842 3.146,5.923 6.118,11.973 8.651,18.179 C 12.72,-18.808 9.273,-6.958 0,0 m -73.648,-13.197 c -2.885,-1.114 -6.362,0.52 -7.353,3.456 -0.954,2.828 0.623,6.082 3.436,7.085 2.857,1.02 6.053,-0.497 7.07,-3.355 1.045,-2.936 -0.344,-6.101 -3.153,-7.186"
             style="fill:#ff6411;fill-opacity:1;fill-rule:nonzero;stroke:none"
             id="path42"
             inkscape:connector-curvature="0" />
        </g>
        <g
           id="g44"
           transform="translate(1076.0522,761.0635)">
          <path
             d="m 0,0 c -1.4,0.101 -2.655,0.437 -3.765,1.009 -1.11,0.572 -2.062,1.339 -2.855,2.301 -0.794,0.962 -1.389,2.036 -1.785,3.22 -0.475,1.419 -0.646,2.78 -0.513,4.085 0.133,1.305 0.501,2.501 1.104,3.59 0.604,1.087 1.408,2.036 2.415,2.844 1.006,0.808 2.145,1.426 3.417,1.851 1.316,0.441 2.595,0.665 3.836,0.674 1.241,0.008 2.379,-0.196 3.414,-0.615 1.034,-0.417 1.943,-1.044 2.727,-1.88 0.783,-0.835 1.383,-1.875 1.799,-3.118 0.391,-1.17 0.618,-2.2 0.68,-3.09 C 10.536,9.981 10.463,9.217 10.254,8.578 10.045,7.938 9.712,7.413 9.257,7 8.802,6.587 8.252,6.273 7.609,6.058 6.76,5.774 5.99,5.756 5.297,6.004 4.604,6.252 4.04,6.661 3.606,7.231 3.567,7.007 3.486,6.776 3.361,6.54 3.237,6.303 3.08,6.08 2.89,5.87 2.7,5.66 2.483,5.47 2.24,5.299 1.996,5.128 1.736,4.996 1.458,4.902 0.829,4.692 0.217,4.614 -0.378,4.667 c -0.595,0.053 -1.15,0.216 -1.665,0.492 -0.515,0.274 -0.969,0.647 -1.362,1.117 -0.393,0.471 -0.692,1.013 -0.898,1.627 -0.21,0.629 -0.296,1.25 -0.258,1.865 0.038,0.614 0.18,1.186 0.426,1.716 0.246,0.529 0.59,0.995 1.033,1.394 0.444,0.401 0.973,0.704 1.587,0.909 0.278,0.093 0.564,0.149 0.859,0.166 0.295,0.017 0.582,0 0.86,-0.054 0.278,-0.053 0.538,-0.137 0.779,-0.252 0.242,-0.114 0.446,-0.249 0.611,-0.405 L 1.183,14.471 3.728,15.322 5.46,10.146 C 5.71,9.399 5.98,8.896 6.27,8.635 6.561,8.375 6.903,8.311 7.298,8.443 7.489,8.506 7.646,8.632 7.77,8.82 c 0.124,0.187 0.195,0.463 0.211,0.826 0.017,0.364 -0.03,0.832 -0.141,1.406 -0.11,0.572 -0.307,1.282 -0.591,2.131 -0.294,0.878 -0.717,1.61 -1.271,2.197 -0.555,0.587 -1.201,1.024 -1.94,1.314 -0.74,0.29 -1.559,0.43 -2.459,0.422 -0.9,-0.009 -1.832,-0.175 -2.797,-0.497 C -2.183,16.296 -3.035,15.84 -3.774,15.251 -4.512,14.663 -5.1,13.966 -5.538,13.161 -5.976,12.356 -6.234,11.464 -6.314,10.486 -6.393,9.508 -6.249,8.471 -5.882,7.375 -5.589,6.497 -5.154,5.695 -4.577,4.969 -4.001,4.243 -3.301,3.657 -2.476,3.208 -1.651,2.761 -0.713,2.497 0.338,2.418 1.389,2.338 2.536,2.507 3.779,2.923 4.349,3.114 5.01,3.412 5.76,3.818 6.511,4.223 7.205,4.761 7.843,5.43 L 9.44,3.793 C 9.06,3.373 8.658,2.995 8.234,2.657 7.81,2.321 7.38,2.026 6.944,1.774 6.508,1.522 6.085,1.304 5.675,1.119 5.266,0.933 4.886,0.781 4.535,0.663 2.911,0.12 1.4,-0.101 0,0 M 2.043,7.709 C 2.275,7.916 2.45,8.158 2.569,8.434 2.688,8.709 2.754,9 2.766,9.304 2.777,9.609 2.732,9.915 2.629,10.222 2.419,10.851 2.042,11.323 1.498,11.636 0.953,11.951 0.352,11.997 -0.306,11.777 -0.935,11.566 -1.365,11.175 -1.596,10.602 -1.827,10.028 -1.837,9.427 -1.626,8.798 -1.421,8.184 -1.053,7.717 -0.524,7.399 0.006,7.08 0.585,7.026 1.214,7.236 1.535,7.344 1.812,7.501 2.043,7.709"
             style="fill:#ff6411;fill-opacity:1;fill-rule:nonzero;stroke:none"
             id="path46"
             inkscape:connector-curvature="0" />
        </g>
        <g
           id="g48"
           transform="translate(1095.0172,818.9272)">
          <path
             d="M 0,0 C 0.114,-0.051 3.712,-0.061 4.295,-3.314 4.559,-4.787 3.838,-5.84 3.224,-6.701 c -4.489,-6.302 -18.898,-11.631 -25.491,-13.368 -1.993,-0.525 -4.256,-1.3 -4.678,-4.195 -0.465,-3.198 1.804,-7.307 4.213,-8.87 2.409,-1.564 4.825,-1.262 7.066,-0.82 3.473,0.688 13.488,5.069 16.516,7.167 3.185,2.208 6.281,4.937 7.886,8.704 0.328,0.772 0.834,1.915 0.881,2.953 0.036,0.798 -0.045,2.102 -0.266,2.947 -0.661,2.526 -0.798,2.881 -1.597,4.732 -0.8,1.852 -0.929,2.196 -2.437,4.931 0,0 -1.316,2.396 -3.895,2.532 z"
             style="fill:#ff6411;fill-opacity:1;fill-rule:nonzero;stroke:none"
             id="path50"
             inkscape:connector-curvature="0" />
        </g>
        <g
           id="g52"
           transform="translate(1066.0615,783.8008)">
          <path
             d="m 0,0 c -2.245,1.622 -4.44,5.756 -4.114,8.905 0.18,1.739 1.009,2.674 2.037,3.244 -0.449,-0.128 -0.909,-0.361 -1.324,-0.439 -2.775,-0.518 -6.006,-1.108 -8.883,-0.95 -0.526,0.029 -1.074,0.076 -1.561,0.384 -0.491,0.309 -0.862,0.849 -1.166,1.403 -0.757,1.381 -1.202,2.967 -1.267,4.521 l -0.227,-0.122 c 0.049,-2.711 0.791,-4.672 0.791,-4.672 1.124,-2.72 1.599,-4.005 2.442,-6.089 0.844,-2.084 2.159,-4.045 3.899,-5.126 1.396,-0.869 2.89,-1.19 4.393,-1.524 2.248,-0.499 4.84,-0.815 6.955,-0.533 10e-4,0 0.002,0.001 0.003,0.001 C 1.325,-0.796 0.665,-0.481 0,0"
             style="fill:#ff6411;fill-opacity:1;fill-rule:nonzero;stroke:none"
             id="path54"
             inkscape:connector-curvature="0" />
        </g>
      </g>
    </g>
    <g
       aria-label="Barry says “stay safe!”"
       style="font-variant:normal;font-weight:500;font-stretch:normal;font-size:2.70338488px;font-family:Unica77LL;-inkscape-font-specification:Unica77LL-Medium;writing-mode:lr-tb;fill:#ff6411;fill-opacity:1;fill-rule:nonzero;stroke:none;stroke-width:0.24576227"
       id="text438">
      <path
         d="m 2.9748529,264.78831 q 0.1622031,0.0514 0.2541182,0.17301 0.091915,0.11895 0.091915,0.29467 0,0.24871 -0.1946437,0.38388 -0.1919403,0.13247 -0.562304,0.13247 H 1.5853131 v -1.89237 h 0.9245576 q 0.3460332,0 0.5298634,0.13247 0.1865336,0.13246 0.1865336,0.35955 0,0.13787 -0.067585,0.246 -0.064881,0.10814 -0.1838302,0.17032 z M 2.020558,264.20978 v 0.44606 h 0.435245 q 0.1622031,0 0.246008,-0.0568 0.083805,-0.0568 0.083805,-0.16761 0,-0.11084 -0.083805,-0.16491 -0.083805,-0.0568 -0.246008,-0.0568 z m 0.5109398,1.23275 q 0.1730166,0 0.2595249,-0.0568 0.089212,-0.0568 0.089212,-0.17572 0,-0.23519 -0.3487366,-0.23519 H 2.020558 v 0.46769 z"
         style="font-style:normal;font-variant:normal;font-weight:bold;font-stretch:normal;font-family:Montserrat;-inkscape-font-specification:'Montserrat Bold';stroke-width:0.24576227"
         id="path25" />
      <path
         d="m 3.8804837,264.29629 q 0.3379231,0 0.5190499,0.1622 0.1811268,0.1595 0.1811268,0.48391 v 0.82994 H 4.1859662 v -0.18113 q -0.1189489,0.20276 -0.4433551,0.20276 -0.1676099,0 -0.2919656,-0.0568 -0.1216523,-0.0568 -0.1865335,-0.15679 -0.064881,-0.10003 -0.064881,-0.22709 0,-0.20275 0.1513896,-0.319 0.1540929,-0.11624 0.4730923,-0.11624 h 0.3352198 q 0,-0.13787 -0.083805,-0.21086 -0.083805,-0.0757 -0.2514148,-0.0757 -0.1162455,0 -0.2297877,0.0378 -0.1108388,0.0351 -0.1892369,0.0973 l -0.1513896,-0.29467 q 0.118949,-0.0838 0.2838554,-0.12976 0.1676099,-0.046 0.3433299,-0.046 z m -0.032441,1.21382 q 0.1081354,0 0.1919403,-0.0487 0.083805,-0.0514 0.118949,-0.14869 v -0.14868 H 3.8696702 q -0.259525,0 -0.259525,0.17031 0,0.0811 0.062178,0.12976 0.064881,0.046 0.17572,0.046 z"
         style="font-style:normal;font-variant:normal;font-weight:bold;font-stretch:normal;font-family:Montserrat;-inkscape-font-specification:'Montserrat Bold';stroke-width:0.24576227"
         id="path27" />
      <path
         d="m 5.1862227,264.50986 q 0.075695,-0.10543 0.2027539,-0.1595 0.1297625,-0.0541 0.2973723,-0.0541 v 0.38929 q -0.070288,-0.005 -0.094618,-0.005 -0.1811268,0 -0.2838554,0.10273 -0.1027287,0.10003 -0.1027287,0.30278 v 0.68666 h -0.421728 v -1.45442 h 0.4028043 z"
         style="font-style:normal;font-variant:normal;font-weight:bold;font-stretch:normal;font-family:Montserrat;-inkscape-font-specification:'Montserrat Bold';stroke-width:0.24576227"
         id="path29" />
      <path
         d="m 6.2243187,264.50986 q 0.075695,-0.10543 0.2027539,-0.1595 0.1297624,-0.0541 0.2973723,-0.0541 v 0.38929 q -0.070288,-0.005 -0.094619,-0.005 -0.1811268,0 -0.2838554,0.10273 -0.1027286,0.10003 -0.1027286,0.30278 v 0.68666 H 5.8215143 v -1.45442 h 0.4028044 z"
         style="font-style:normal;font-variant:normal;font-weight:bold;font-stretch:normal;font-family:Montserrat;-inkscape-font-specification:'Montserrat Bold';stroke-width:0.24576227"
         id="path31" />
      <path
         d="m 8.346476,264.31792 -0.6569225,1.54363 q -0.1000253,0.25142 -0.2487114,0.35414 -0.1459828,0.10273 -0.3541434,0.10273 -0.1135422,0 -0.224381,-0.0351 -0.1108388,-0.0351 -0.1811268,-0.0973 l 0.154093,-0.30008 q 0.048661,0.0433 0.1108387,0.0676 0.064881,0.0243 0.1270591,0.0243 0.086508,0 0.140576,-0.0433 0.054068,-0.0406 0.097322,-0.13787 l 0.00541,-0.0135 -0.6298887,-1.46523 h 0.435245 l 0.4082111,0.98673 0.4109145,-0.98673 z"
         style="font-style:normal;font-variant:normal;font-weight:bold;font-stretch:normal;font-family:Montserrat;-inkscape-font-specification:'Montserrat Bold';stroke-width:0.24576227"
         id="path33" />
      <path
         d="m 9.3115847,265.79397 q -0.1811268,0 -0.3541434,-0.0433 -0.1730167,-0.046 -0.2757453,-0.11354 l 0.140576,-0.30278 q 0.097322,0.0622 0.2351945,0.10273 0.1378727,0.0378 0.2703385,0.0378 0.2676351,0 0.2676351,-0.13247 0,-0.0622 -0.072991,-0.0892 -0.072991,-0.027 -0.2243809,-0.046 -0.1784234,-0.027 -0.294669,-0.0622 -0.1162455,-0.0351 -0.2027538,-0.12435 -0.083805,-0.0892 -0.083805,-0.25412 0,-0.13787 0.078398,-0.2433 0.081102,-0.10814 0.2324911,-0.16761 0.1540929,-0.0595 0.3622536,-0.0595 0.1540929,0 0.3054825,0.0351 0.1540929,0.0324 0.2541181,0.0919 l -0.140576,0.30008 q -0.1919403,-0.10814 -0.4190246,-0.10814 -0.1351693,0 -0.2027539,0.0378 -0.067585,0.0378 -0.067585,0.0973 0,0.0676 0.072991,0.0946 0.072991,0.027 0.2324911,0.0514 0.1784234,0.0297 0.2919655,0.0649 0.1135422,0.0324 0.1973471,0.12166 0.083805,0.0892 0.083805,0.24871 0,0.13517 -0.081102,0.2406 -0.081102,0.10543 -0.2378979,0.1649 -0.1540929,0.0568 -0.3676603,0.0568 z"
         style="font-style:normal;font-variant:normal;font-weight:bold;font-stretch:normal;font-family:Montserrat;-inkscape-font-specification:'Montserrat Bold';stroke-width:0.24576227"
         id="path35" />
      <path
         d="m 10.82548,264.29629 q 0.337923,0 0.51905,0.1622 0.181127,0.1595 0.181127,0.48391 v 0.82994 h -0.394694 v -0.18113 q -0.118949,0.20276 -0.443356,0.20276 -0.167609,0 -0.291965,-0.0568 -0.121652,-0.0568 -0.186534,-0.15679 -0.06488,-0.10003 -0.06488,-0.22709 0,-0.20275 0.15139,-0.319 0.154093,-0.11624 0.473092,-0.11624 h 0.33522 q 0,-0.13787 -0.08381,-0.21086 -0.0838,-0.0757 -0.251415,-0.0757 -0.116246,0 -0.229788,0.0378 -0.110838,0.0351 -0.189237,0.0973 l -0.151389,-0.29467 q 0.118949,-0.0838 0.283855,-0.12976 0.16761,-0.046 0.34333,-0.046 z m -0.03244,1.21382 q 0.108136,0 0.191941,-0.0487 0.0838,-0.0514 0.118949,-0.14869 v -0.14868 h -0.289262 q -0.259525,0 -0.259525,0.17031 0,0.0811 0.06218,0.12976 0.06488,0.046 0.17572,0.046 z"
         style="font-style:normal;font-variant:normal;font-weight:bold;font-stretch:normal;font-family:Montserrat;-inkscape-font-specification:'Montserrat Bold';stroke-width:0.24576227"
         id="path37" />
      <path
         d="m 13.172022,264.31792 -0.656923,1.54363 q -0.100025,0.25142 -0.248711,0.35414 -0.145983,0.10273 -0.354144,0.10273 -0.113542,0 -0.224381,-0.0351 -0.110838,-0.0351 -0.181126,-0.0973 l 0.154093,-0.30008 q 0.04866,0.0433 0.110838,0.0676 0.06488,0.0243 0.12706,0.0243 0.08651,0 0.140576,-0.0433 0.05407,-0.0406 0.09732,-0.13787 l 0.0054,-0.0135 -0.629889,-1.46523 h 0.435245 l 0.408212,0.98673 0.410914,-0.98673 z"
         style="font-style:normal;font-variant:normal;font-weight:bold;font-stretch:normal;font-family:Montserrat;-inkscape-font-specification:'Montserrat Bold';stroke-width:0.24576227"
         id="path39" />
      <path
         d="m 13.596451,265.79397 q -0.181127,0 -0.354143,-0.0433 -0.173017,-0.046 -0.275746,-0.11354 l 0.140576,-0.30278 q 0.09732,0.0622 0.235195,0.10273 0.137872,0.0378 0.270338,0.0378 0.267635,0 0.267635,-0.13247 0,-0.0622 -0.07299,-0.0892 -0.07299,-0.027 -0.224381,-0.046 -0.178423,-0.027 -0.294669,-0.0622 -0.116245,-0.0351 -0.202754,-0.12435 -0.0838,-0.0892 -0.0838,-0.25412 0,-0.13787 0.0784,-0.2433 0.0811,-0.10814 0.232491,-0.16761 0.154093,-0.0595 0.362253,-0.0595 0.154093,0 0.305483,0.0351 0.154093,0.0324 0.254118,0.0919 l -0.140576,0.30008 q -0.19194,-0.10814 -0.419025,-0.10814 -0.135169,0 -0.202754,0.0378 -0.06758,0.0378 -0.06758,0.0973 0,0.0676 0.07299,0.0946 0.07299,0.027 0.232491,0.0514 0.178424,0.0297 0.291966,0.0649 0.113542,0.0324 0.197347,0.12166 0.0838,0.0892 0.0838,0.24871 0,0.13517 -0.0811,0.2406 -0.0811,0.10543 -0.237898,0.1649 -0.154093,0.0568 -0.36766,0.0568 z"
         style="font-style:normal;font-variant:normal;font-weight:bold;font-stretch:normal;font-family:Montserrat;-inkscape-font-specification:'Montserrat Bold';stroke-width:0.24576227"
         id="path41" />
      <path
         d="m 15.340134,264.19627 q 0.06758,0.0297 0.105432,0.0892 0.03785,0.0595 0.03785,0.14057 0,0.11625 -0.07299,0.18924 -0.07299,0.0703 -0.186533,0.0703 -0.113542,0 -0.189237,-0.073 -0.07299,-0.073 -0.07299,-0.18654 0,-0.0541 0.01352,-0.10813 0.01352,-0.0541 0.05947,-0.16221 l 0.156796,-0.38928 h 0.267635 z m 0.637999,0 q 0.06759,0.0297 0.105432,0.0892 0.03785,0.0595 0.03785,0.14057 0,0.11625 -0.07299,0.18924 -0.07299,0.0703 -0.186533,0.0703 -0.113543,0 -0.189237,-0.073 -0.07299,-0.073 -0.07299,-0.18654 0,-0.0541 0.01352,-0.10813 0.01352,-0.0541 0.05948,-0.16221 l 0.156796,-0.38928 h 0.267635 z"
         style="font-style:normal;font-variant:normal;font-weight:bold;font-stretch:normal;font-family:Montserrat;-inkscape-font-specification:'Montserrat Bold';stroke-width:0.24576227"
         id="path43" />
      <path
         d="m 16.640465,265.79397 q -0.181127,0 -0.354143,-0.0433 -0.173017,-0.046 -0.275746,-0.11354 l 0.140576,-0.30278 q 0.09732,0.0622 0.235195,0.10273 0.137872,0.0378 0.270338,0.0378 0.267635,0 0.267635,-0.13247 0,-0.0622 -0.07299,-0.0892 -0.07299,-0.027 -0.224381,-0.046 -0.178423,-0.027 -0.294669,-0.0622 -0.116245,-0.0351 -0.202754,-0.12435 -0.08381,-0.0892 -0.08381,-0.25412 0,-0.13787 0.0784,-0.2433 0.0811,-0.10814 0.232492,-0.16761 0.154093,-0.0595 0.362253,-0.0595 0.154093,0 0.305483,0.0351 0.154093,0.0324 0.254118,0.0919 l -0.140576,0.30008 q -0.19194,-0.10814 -0.419025,-0.10814 -0.135169,0 -0.202754,0.0378 -0.06758,0.0378 -0.06758,0.0973 0,0.0676 0.07299,0.0946 0.07299,0.027 0.232491,0.0514 0.178424,0.0297 0.291966,0.0649 0.113542,0.0324 0.197347,0.12166 0.0838,0.0892 0.0838,0.24871 0,0.13517 -0.0811,0.2406 -0.0811,0.10543 -0.237898,0.1649 -0.154093,0.0568 -0.36766,0.0568 z"
         style="font-style:normal;font-variant:normal;font-weight:bold;font-stretch:normal;font-family:Montserrat;-inkscape-font-specification:'Montserrat Bold';stroke-width:0.24576227"
         id="path45" />
      <path
         d="m 18.505798,265.70205 q -0.06218,0.046 -0.154093,0.0703 -0.08921,0.0216 -0.189237,0.0216 -0.259525,0 -0.402805,-0.13247 -0.140576,-0.13247 -0.140576,-0.38929 v -0.59745 h -0.224381 v -0.3244 h 0.224381 v -0.35414 h 0.421728 v 0.35414 h 0.362254 v 0.3244 h -0.362254 v 0.59205 q 0,0.0919 0.04596,0.14328 0.04866,0.0487 0.135169,0.0487 0.100025,0 0.170313,-0.0541 z"
         style="font-style:normal;font-variant:normal;font-weight:bold;font-stretch:normal;font-family:Montserrat;-inkscape-font-specification:'Montserrat Bold';stroke-width:0.24576227"
         id="path47" />
      <path
         d="m 19.062692,264.29629 q 0.337923,0 0.51905,0.1622 0.181127,0.1595 0.181127,0.48391 v 0.82994 h -0.394694 v -0.18113 q -0.118949,0.20276 -0.443355,0.20276 -0.16761,0 -0.291966,-0.0568 -0.121652,-0.0568 -0.186533,-0.15679 -0.06488,-0.10003 -0.06488,-0.22709 0,-0.20275 0.15139,-0.319 0.154093,-0.11624 0.473092,-0.11624 h 0.33522 q 0,-0.13787 -0.08381,-0.21086 -0.0838,-0.0757 -0.251415,-0.0757 -0.116245,0 -0.229788,0.0378 -0.110838,0.0351 -0.189236,0.0973 l -0.15139,-0.29467 q 0.118949,-0.0838 0.283855,-0.12976 0.16761,-0.046 0.34333,-0.046 z m -0.03244,1.21382 q 0.108135,0 0.19194,-0.0487 0.08381,-0.0514 0.118949,-0.14869 v -0.14868 h -0.289262 q -0.259525,0 -0.259525,0.17031 0,0.0811 0.06218,0.12976 0.06488,0.046 0.17572,0.046 z"
         style="font-style:normal;font-variant:normal;font-weight:bold;font-stretch:normal;font-family:Montserrat;-inkscape-font-specification:'Montserrat Bold';stroke-width:0.24576227"
         id="path49" />
      <path
         d="m 21.409234,264.31792 -0.656923,1.54363 q -0.100025,0.25142 -0.248711,0.35414 -0.145983,0.10273 -0.354143,0.10273 -0.113543,0 -0.224381,-0.0351 -0.110839,-0.0351 -0.181127,-0.0973 l 0.154093,-0.30008 q 0.04866,0.0433 0.110839,0.0676 0.06488,0.0243 0.127059,0.0243 0.08651,0 0.140576,-0.0433 0.05407,-0.0406 0.09732,-0.13787 l 0.0054,-0.0135 -0.629888,-1.46523 h 0.435245 l 0.408211,0.98673 0.410914,-0.98673 z"
         style="font-style:normal;font-variant:normal;font-weight:bold;font-stretch:normal;font-family:Montserrat;-inkscape-font-specification:'Montserrat Bold';stroke-width:0.24576227"
         id="path51" />
      <path
         d="m 22.374344,265.79397 q -0.181127,0 -0.354143,-0.0433 -0.173017,-0.046 -0.275746,-0.11354 l 0.140576,-0.30278 q 0.09732,0.0622 0.235195,0.10273 0.137873,0.0378 0.270338,0.0378 0.267636,0 0.267636,-0.13247 0,-0.0622 -0.07299,-0.0892 -0.07299,-0.027 -0.224381,-0.046 -0.178423,-0.027 -0.294669,-0.0622 -0.116245,-0.0351 -0.202754,-0.12435 -0.0838,-0.0892 -0.0838,-0.25412 0,-0.13787 0.0784,-0.2433 0.0811,-0.10814 0.232491,-0.16761 0.154093,-0.0595 0.362253,-0.0595 0.154093,0 0.305483,0.0351 0.154093,0.0324 0.254118,0.0919 l -0.140576,0.30008 q -0.19194,-0.10814 -0.419025,-0.10814 -0.135169,0 -0.202754,0.0378 -0.06758,0.0378 -0.06758,0.0973 0,0.0676 0.07299,0.0946 0.07299,0.027 0.232491,0.0514 0.178424,0.0297 0.291966,0.0649 0.113542,0.0324 0.197347,0.12166 0.08381,0.0892 0.08381,0.24871 0,0.13517 -0.0811,0.2406 -0.0811,0.10543 -0.237898,0.1649 -0.154092,0.0568 -0.36766,0.0568 z"
         style="font-style:normal;font-variant:normal;font-weight:bold;font-stretch:normal;font-family:Montserrat;-inkscape-font-specification:'Montserrat Bold';stroke-width:0.24576227"
         id="path53" />
      <path
         d="m 23.888239,264.29629 q 0.337923,0 0.519049,0.1622 0.181127,0.1595 0.181127,0.48391 v 0.82994 h -0.394694 v -0.18113 q -0.118949,0.20276 -0.443355,0.20276 -0.16761,0 -0.291966,-0.0568 -0.121652,-0.0568 -0.186533,-0.15679 -0.06488,-0.10003 -0.06488,-0.22709 0,-0.20275 0.151389,-0.319 0.154093,-0.11624 0.473092,-0.11624 h 0.33522 q 0,-0.13787 -0.0838,-0.21086 -0.08381,-0.0757 -0.251415,-0.0757 -0.116245,0 -0.229787,0.0378 -0.110839,0.0351 -0.189237,0.0973 l -0.15139,-0.29467 q 0.118949,-0.0838 0.283856,-0.12976 0.16761,-0.046 0.34333,-0.046 z m -0.03244,1.21382 q 0.108135,0 0.19194,-0.0487 0.08381,-0.0514 0.118949,-0.14869 v -0.14868 h -0.289262 q -0.259525,0 -0.259525,0.17031 0,0.0811 0.06218,0.12976 0.06488,0.046 0.17572,0.046 z"
         style="font-style:normal;font-variant:normal;font-weight:bold;font-stretch:normal;font-family:Montserrat;-inkscape-font-specification:'Montserrat Bold';stroke-width:0.24576227"
         id="path55" />
      <path
         d="m 25.253446,264.35036 h 0.373067 v 0.3244 h -0.362254 v 1.09758 h -0.421728 v -1.09758 H 24.61815 v -0.3244 h 0.224381 v -0.0649 q 0,-0.24871 0.145983,-0.3947 0.148686,-0.14598 0.416321,-0.14598 0.09462,0 0.178424,0.0216 0.08651,0.0189 0.143279,0.0568 l -0.110839,0.30548 q -0.07299,-0.0514 -0.170313,-0.0514 -0.19194,0 -0.19194,0.21086 z"
         style="font-style:normal;font-variant:normal;font-weight:bold;font-stretch:normal;font-family:Montserrat;-inkscape-font-specification:'Montserrat Bold';stroke-width:0.24576227"
         id="path57" />
      <path
         d="m 27.061468,265.05054 q 0,0.008 -0.0081,0.11354 H 25.95308 q 0.02974,0.13517 0.140576,0.21356 0.110839,0.0784 0.275746,0.0784 0.113542,0 0.20005,-0.0324 0.08921,-0.0351 0.164907,-0.10813 l 0.22438,0.2433 q -0.205457,0.2352 -0.600151,0.2352 -0.246008,0 -0.435245,-0.0946 -0.189237,-0.0973 -0.291965,-0.26764 -0.102729,-0.17031 -0.102729,-0.38658 0,-0.21357 0.100025,-0.38388 0.102729,-0.17302 0.278449,-0.26764 0.178423,-0.0973 0.397397,-0.0973 0.213568,0 0.386584,0.0919 0.173017,0.0919 0.270339,0.26493 0.100025,0.17031 0.100025,0.3974 z m -0.754244,-0.43525 q -0.14328,0 -0.240602,0.0811 -0.09732,0.0811 -0.118948,0.22168 h 0.716397 q -0.02163,-0.13787 -0.118949,-0.21897 -0.09732,-0.0838 -0.237898,-0.0838 z"
         style="font-style:normal;font-variant:normal;font-weight:bold;font-stretch:normal;font-family:Montserrat;-inkscape-font-specification:'Montserrat Bold';stroke-width:0.24576227"
         id="path59" />
      <path
         d="m 27.102019,263.87997 h 0.50283 l -0.08381,1.23545 h -0.33522 z m 0.251415,1.914 q -0.110839,0 -0.186534,-0.0703 -0.07299,-0.073 -0.07299,-0.17572 0,-0.10273 0.07299,-0.17032 0.07299,-0.0703 0.186534,-0.0703 0.113542,0 0.186533,0.0703 0.07299,0.0676 0.07299,0.17032 0,0.10273 -0.07569,0.17572 -0.07299,0.0703 -0.18383,0.0703 z"
         style="font-style:normal;font-variant:normal;font-weight:bold;font-stretch:normal;font-family:Montserrat;-inkscape-font-specification:'Montserrat Bold';stroke-width:0.24576227"
         id="path61" />
      <path
         d="m 28.14553,263.7448 q 0.113542,0 0.186533,0.073 0.07299,0.0703 0.07299,0.18654 0,0.0541 -0.01352,0.10813 -0.01352,0.0541 -0.05677,0.1622 l -0.156797,0.38929 h -0.267635 l 0.116246,-0.42713 q -0.06759,-0.0297 -0.105432,-0.0892 -0.03785,-0.0595 -0.03785,-0.14327 0,-0.11625 0.07299,-0.18654 0.07569,-0.073 0.189237,-0.073 z m 0.637999,0 q 0.113542,0 0.186533,0.073 0.07299,0.0703 0.07299,0.18654 0,0.0541 -0.01352,0.10813 -0.01352,0.0541 -0.05677,0.1622 l -0.156797,0.38929 h -0.267635 l 0.116246,-0.42713 q -0.06759,-0.0297 -0.105432,-0.0892 -0.03785,-0.0595 -0.03785,-0.14327 0,-0.11625 0.07299,-0.18654 0.07569,-0.073 0.189237,-0.073 z"
         style="font-style:normal;font-variant:normal;font-weight:bold;font-stretch:normal;font-family:Montserrat;-inkscape-font-specification:'Montserrat Bold';stroke-width:0.24576227"
         id="path63" />
    </g>
  </g>
</svg>
