<svg xmlns="http://www.w3.org/2000/svg" xmlns:xlink="http://www.w3.org/1999/xlink" width="163.406" height="166" viewBox="0 0 163.406 166">
  <defs>
    <filter id="Path_13" x="46" y="51" width="77.624" height="77.624" filterUnits="userSpaceOnUse">
      <feOffset dy="6" input="SourceAlpha"/>
      <feGaussianBlur stdDeviation="3" result="blur"/>
      <feFlood flood-opacity="0.271"/>
      <feComposite operator="in" in2="blur"/>
      <feComposite in="SourceGraphic"/>
    </filter>
  </defs>
  <g id="Group_42" data-name="Group 42" transform="translate(-1737 -268)">
    <g id="Path_42" data-name="Path 42" transform="translate(1737 268)" fill="#fff">
      <path d="M 162.90576171875 165.5 L 70.00000762939453 165.5 C 60.61734008789062 165.5 51.51560974121094 163.6625061035156 42.9476318359375 160.0385437011719 C 38.82956695556641 158.2967681884766 34.85767364501953 156.140869140625 31.14223480224609 153.6307983398438 C 27.46198463439941 151.1444549560547 24.0012149810791 148.2890625 20.85608863830566 145.1439208984375 C 17.7109432220459 141.9987945556641 14.85554790496826 138.5380249023438 12.36921405792236 134.8577728271484 C 9.859130859375 131.142333984375 7.703235149383545 127.1704406738281 5.961464405059814 123.052375793457 C 2.33750581741333 114.4843978881836 0.500005841255188 105.3826675415039 0.500005841255188 96 L 0.500005841255188 70 C 0.500005841255188 60.61733245849609 2.33750581741333 51.51560592651367 5.961464405059814 42.94762420654297 C 7.703235149383545 38.82956314086914 9.859130859375 34.857666015625 12.36921405792236 31.1422290802002 C 14.85554790496826 27.46197891235352 17.7109432220459 24.0012092590332 20.85608863830566 20.85608291625977 C 24.0012149810791 17.7109375 27.46198463439941 14.85554122924805 31.14223480224609 12.36920833587646 C 34.85767364501953 9.859125137329102 38.82956695556641 7.703228950500488 42.9476318359375 5.961458206176758 C 51.51560974121094 2.337500095367432 60.61734008789062 0.5 70.00000762939453 0.5 L 162.90576171875 0.5 L 162.90576171875 165.5 Z" stroke="none"/>
      <path d="M 69.99999237060547 1 C 60.68460083007812 1 51.64839935302734 2.82421875 43.14237976074219 6.421951293945312 C 39.05405426025391 8.151168823242188 35.11079406738281 10.29150390625 31.422119140625 12.78352355957031 C 27.76824951171875 15.25204467773438 24.33224487304688 18.08700561523438 21.20962524414062 21.20962524414062 C 18.08699035644531 24.33226013183594 15.25202941894531 27.76826477050781 12.78350830078125 31.42213439941406 C 10.29148864746094 35.11080932617188 8.151168823242188 39.05406188964844 6.421951293945312 43.14239501953125 C 2.824203491210938 51.64841461181641 0.9999847412109375 60.68460845947266 0.9999847412109375 70 L 0.9999847412109375 96 C 0.9999847412109375 105.3153915405273 2.824203491210938 114.3515853881836 6.421951293945312 122.8576049804688 C 8.151168823242188 126.9459381103516 10.29148864746094 130.8891906738281 12.78350830078125 134.5778656005859 C 15.25202941894531 138.2317352294922 18.08699035644531 141.6677398681641 21.20962524414062 144.7903747558594 C 24.33224487304688 147.9129943847656 27.76824951171875 150.7479553222656 31.422119140625 153.2164764404297 C 35.11079406738281 155.70849609375 39.05405426025391 157.8488311767578 43.14237976074219 159.5780487060547 C 51.64839935302734 163.17578125 60.68460083007812 165 69.99999237060547 165 L 162.4057464599609 165 L 162.4057464599609 1 L 69.99999237060547 1 M 69.99999237060547 0 L 163.4057464599609 0 L 163.4057464599609 166 L 69.99999237060547 166 C 31.34005737304688 166 -1.52587890625e-05 134.6599426269531 -1.52587890625e-05 96 L -1.52587890625e-05 70 C -1.52587890625e-05 31.34007263183594 31.34005737304688 0 69.99999237060547 0 Z" stroke="none" fill="#707070"/>
    </g>
    <g transform="matrix(1, 0, 0, 1, 1737, 268)" filter="url(#Path_13)">
      <path id="Path_13-2" data-name="Path 13" d="M208.68,234.718V223.434l-11.5-.751a19.283,19.283,0,0,0-.823-2.054l7.583-8.643-7.979-7.979-8.545,7.5a19.224,19.224,0,0,0-2.163-.911l-.74-11.328H173.226l-.738,11.3a19.2,19.2,0,0,0-2.191.913l-8.519-7.475-7.979,7.979,7.537,8.59a19.171,19.171,0,0,0-.848,2.112l-11.43.746v11.285l11.584.757a19.2,19.2,0,0,0,.834,1.943l-7.676,8.749,7.979,7.979,8.847-7.762a19.3,19.3,0,0,0,1.833.746l.768,11.758H184.51l.77-11.783a19.254,19.254,0,0,0,1.808-.743l8.871,7.784,7.979-7.979-7.721-8.8a19.187,19.187,0,0,0,.806-1.887ZM178.868,238.2a9.122,9.122,0,1,1,9.122-9.122A9.122,9.122,0,0,1,178.868,238.2Z" transform="translate(-94.06 -145.26)" fill="#056829"/>
    </g>
  </g>
</svg>
