<svg xmlns="http://www.w3.org/2000/svg" width="60.005" height="47.991" viewBox="0 0 60.005 47.991">
  <path id="Path_30" data-name="Path 30" d="M749.567,200.919a26.253,26.253,0,0,1-7.06,1.92,12.142,12.142,0,0,0,5.434-6.736,25.07,25.07,0,0,1-7.842,2.961,12.363,12.363,0,0,0-21.315,8.264,12.667,12.667,0,0,0,.36,2.767,34.945,34.945,0,0,1-25.382-12.659,11.961,11.961,0,0,0,3.775,16.173,11.911,11.911,0,0,1-5.562-1.5v.163a11.461,11.461,0,0,0,.845,4.36,12.274,12.274,0,0,0,9.048,7.485,12.1,12.1,0,0,1-3.255.455,10.962,10.962,0,0,1-2.312-.26,12.414,12.414,0,0,0,11.489,8.46,24.9,24.9,0,0,1-15.263,5.174c-1.009,0-1.951-.066-2.96-.164a35.525,35.525,0,0,0,18.873,5.434c19.23,0,31.107-13.308,34.2-27.137a33.283,33.283,0,0,0,.814-7.321V207.2a25.453,25.453,0,0,0,6.118-6.28Z" transform="translate(-689.567 -195.225)" fill="#ff7800" fill-rule="evenodd"/>
</svg>
