<svg xmlns="http://www.w3.org/2000/svg" width="60" height="44" viewBox="0 0 60 44">
  <path id="Path_32" data-name="Path 32" d="M623.02,206.394s-.615-4.326-2.406-6.211a8.589,8.589,0,0,0-5.983-2.667c-8.39-.617-20.976-.617-20.976-.617h-.066s-12.551,0-20.944.617a8.551,8.551,0,0,0-6.015,2.667c-1.79,1.886-2.405,6.211-2.405,6.211a95.384,95.384,0,0,0-.62,10.08v4.781a93.8,93.8,0,0,0,.62,10.082s.615,4.326,2.405,6.243c2.276,2.5,5.27,2.407,6.635,2.666,4.78.489,20.39.651,20.39.651s12.585-.065,20.976-.651a8.438,8.438,0,0,0,5.983-2.666c1.791-1.918,2.406-6.243,2.406-6.243a99.415,99.415,0,0,0,.585-10.082v-4.781c0-5.008-.585-10.08-.585-10.08Zm-19.382,11.838-16.228,8.746v-17.56l7.35,4Z" transform="translate(-563.605 -196.898)" fill="#fff" fill-rule="evenodd"/>
</svg>
